<svg style="background:none; z-index:101;" xmlns="http://www.w3.org/2000/svg" xmlns:xlink="http://www.w3.org/1999/xlink" viewBox="0 0 1953.316 698.165">
  <defs>
    <clipPath id="clip-path" transform="translate(-10.717 -13.405)">
      <path d="M1691.084,490.307a4.541,4.541,0,0,1-2.305.668,15.213,15.213,0,0,1-3.59-.213,17.842,17.842,0,0,1-7.316-2.71,4.514,4.514,0,0,1-1.662-1.731l-.082-.8a4.127,4.127,0,0,1,1.712-2.447,4.7,4.7,0,0,1,1.272-.181q.935-.03,1.867-.067a7.22,7.22,0,0,1,2.66.405q.255.085.5.185,2.211.751-3.567.781a20.152,20.152,0,0,1,3.992.672l2.025.646a11.406,11.406,0,0,1,4.274,2.484c.661.675,1.017,1.594.216,2.3a3.252,3.252,0,0,1-1.628.554q-2.19.408,1.628-.554ZM292.77,701.587,285.5,696.9l7.271,4.686c2.753,2.4,1.365,2.536,3.432-.433a12.349,12.349,0,0,1,3.418-3.313c4.294-2.8,9.908-3.971,14.607-6.046q14.937-6.6,29.977-12.959,30.617-12.986,61.587-25.114c40.547-15.886,81.545-30.473,122.8-44.395q123.9-41.812,251.435-71.321c84.664-19.5,170.4-35.237,256.346-47.9,84.979-12.517,170.482-22.391,256.163-28.512,90.092-6.436,181.631-8.648,271.253,4.411,10.16,1.481,20.212,2.953,30.419,4.041,1.989.212-2.827-3.3-3.657-3.519-45.123-12.134-93.418-15.442-139.954-17.666-47.313-2.261-94.593-1.361-141.92-.2-90.4,2.216-180.805,7.69-270.592,18.59a2530.985,2530.985,0,0,0-263.643,46.062,2631.366,2631.366,0,0,0-256.071,72.564c-41.839,14.224-83.164,30.039-124.047,46.806q-30.952,12.695-61.538,26.263-15.3,6.789-30.5,13.8c-7.839,3.615-18.551,6.9-24.389,13.574s-2.824,12.756,3.56,17.58c2.747,2.077,8.982,5.9,12.667,4.513,3.65-1.378.684-5.048-1.356-6.825Z" fill="none"/>
    </clipPath>
    <clipPath id="clip-path-2" transform="translate(-10.717 -13.405)">
      <path d="M461.935,22.685c-33.683,98.252-78.815,191.189-133.517,279.5-31.077,50.167-60.355,98.334-97.7,144.015C202.131,481.165,177,517.979,142.963,547.7,70.629,610.867,48.291,626.515,1.223,661.858c6.245,1.316,19.04,2.633,25.285,3.949,58.884-149.549,127.7-172.88,226.371-218.965C307.92,421.134,363,396.121,415.728,365.806A1263.244,1263.244,0,0,0,566.411,264.2c44.408-34.885,95.187-57.3,109.93-135.683,1.333-7.089-10.938-12.076-11.75-12.422-57.652-24.55-112.749,46.772-147.6,84.074A869.809,869.809,0,0,0,407.867,344.9c-22.9,37.9-34.246,54.648-45.693,83.025-8.885,22.028-22.839,64.207-6.333,86.667,15.639,21.281,61.045,15.774,84.25,11.625,26.77-4.786,52.635-11.518,76.5-26.651,58.941-37.38,94.072-106.92,118.005-170.224,2.452-6.485-11.215-6.625-14.541-5.463-26.47,9.249-49.1,28.084-68.716,49.47-16.323,17.8-31.144,36.778-38.878,58.933-2.063,5.911,8.84,6.344,12.176,5.951,28.065-3.309,53.364-17.848,69.205-41.405l-12.176,3.379c40.123,4.489,96.387-7.791,122.21-37.917,14.528-16.948,16.547-26.409,19.8-49.365,1.116-7.866-12.609-6.524-16.077-5.073A187.958,187.958,0,0,0,598.1,437.034c-3.262,13.724,20.764,7.635,29.764,4.8,36.78-11.579,59.1-22.334,92.893-40.925,32.314-17.776,65.884-40.248,90.005-68.5,5.632-6.6,10.3-13.826,12.522-22.289,2.839-10.827-.789-21.142-.532-32.02.448-18.943,17.935-28.679,33.414-35.236,41.51-17.583,84.332-32.615,126.854-47.535,48.291-16.945,94.67-28.134,163.818-41.236-3.918-2.449-30.082-17.884-34-20.333-43.422,35.616-67.436,61.248-98.216,94.411-32.22,34.715-64.784,68.97-99.108,101.63A1849.1,1849.1,0,0,1,691.305,511.993c-43.4,29.954-93.221,62.243-145.964,72.443,4.782,1.948,9.311,2.615,14.093,4.562-2.391-68.3,62.411-119.141,113.017-153.517,58.644-39.836,127.1-67.107,194.694-88.473a726.457,726.457,0,0,1,116.5-26.468l-13.169-6.777q-39.428,50.559-78.988,101.013c-2.306,2.947,3.072,5.639,4.929,6.242a18.991,18.991,0,0,0,13-.865A545.231,545.231,0,0,0,1037.072,344.7l-19.723-4.3c-6.9,13.616-13.674,27.3-20.462,40.969l20.3,2.848c8.125-19.785,23.763-35.808,44.437-42.173l-15.29-4.362-6.836,35.756c-1.3,6.789,18.206,6.8,20.584,1.414,8.281-18.751,34.273-14.928,51.216-16.972,10.4-1.255,21.109-3.433,30.308-8.663,11.592-6.59,18.963-17.244,25.069-28.669,39.165-73.285,65.878-104.9,110.891-146.124,25.051-22.945,54.76-40.844,82.636-60.221h-18.585c18.136,12.785,6.193,40.065-1.33,55.59a420.456,420.456,0,0,1-40.686,66.393c-31.2,42.179-68.877,79.275-106.47,115.68C1111.726,430.7,1027.421,505.482,944.6,582.831c-22.707,21.208-43.51,39.068-76.01,57.51-24.2,13.731-53.972,26.342-82.705,27.911L799.2,678.977C820.783,619.542,865.557,572.4,917.862,540.57c60.968-37.106,131.715-67.485,198.979-90.979,33.432-11.677,67.24-22.235,101.2-32.275,30.608-9.05,60.879-16.677,90.3-29.225,20.442-8.717,45.761-18.714,59-27.75,11.678-7.97,11.348-5.419,18.667-17.823,15.782-26.749,7.083-40.677-41.412-37.859-31.027,1.8-63.331,19.525-87.431,37.944a208.174,208.174,0,0,0-61.96,76.389c-2.6,5.512,5.2,8.579,9.052,9.353a284.917,284.917,0,0,0,151.006-10.873c22.424-8.006,47.887-18.518,65.27-35.288,13.515-13.038,18.773-36.038,2.07-50.014-32.762-27.412-63.661,11.266-56.491,35.985,1.9,6.536,14.159,5.528,18.562,4.353,21.458-5.727,52.684-28.538,72.206-39.12l-21-3.183c4.707,14.834,2.133,30.052-6.1,43.083-5.607,8.875,18.155,10.528,22.81,5.494,15.043-16.269,41.787-47.177,66.127-29.318,29.351,21.537-11.928,55.98-27.768,70.387A723.991,723.991,0,0,1,1325.7,532.425c7.146,2.423,16.925,7.478,24.071,9.9,16.683-64.205,78.577-103.335,133.639-131.158a714.827,714.827,0,0,1,204.3-66.728c40.149-6.7,81.351-11.272,122.105-11.272,97.774,0,151.9,26.423,154.024,22.756,2.3-3.959-91-34.339-154.024-34.339-38.437,0-76.636.645-114.746,6.19a759.023,759.023,0,0,0-111.993,25.16,750.488,750.488,0,0,0-105.153,41.1c-32.139,15.39-63.886,32.66-92.172,54.46-28.946,22.308-54.152,51.122-63.349,87.23-2.777,10.9,22.318,20.139,28.124,17.222,18.628-9.357,37.111-19.047,54.627-30.333,64.436-41.52,83.353-70.353,123.027-116.309,8.9-10.306,18.512-21.506,20.159-35.461,2.969-25.146-18.293-38.458-39.978-40.354-32.491-2.841-56.671,18.928-77.327,41.1l22.81,5.5c9.835-15.439,11.615-33.363,6.266-50.71-2.251-7.3-16.215-5.767-21-3.184-17.965,9.69-52.935,41.137-72.663,41.137l18.563,4.352c-8.917-6.333.833-30.833,20.166-35-.925-.106-6.35-.213-7.275-.32.58.434,5.727,8.521,6.2,9.07.506,1.441,2.11,2.912,2.746,4.49,3.486,8.646.385,18.165-5.464,24.922-13.777,15.916-38.314,25.288-57.609,32.257a245.815,245.815,0,0,1-132.625,9.589l9.051,9.353c14.393-38.694,24.109-51.856,45.279-69.83,19.48-16.539,36.114-25.364,74.816-32.352,6.543-1.181,17.536-1.516,21.56,5.017,7.047,11.439-13.449,24.808-20.9,30.413-23.413,17.613-50.549,29.32-78.089,38.815-60.375,20.816-122.361,36.3-182.395,58.323-61.591,22.6-121.927,49.54-177.948,83.846-54.031,33.088-108.081,75.61-129.948,137.2-7.733,21.782,9.3,25.6,29.267,21.119,58-13,98.608-32.165,141.5-65.5,48.048-37.342,97.584-83.5,133-129.25,36.7-47.408,85.037-89.191,128.132-130.872,39.263-37.975,77.93-76.723,110.829-120.47,18.3-24.331,34.621-50.221,47.371-77.9,8.672-18.826,18.737-48.476-2.47-63.006a16.756,16.756,0,0,0-18.585,0c-48.026,34.347-91.7,76.528-129.811,121.567a683.184,683.184,0,0,0-53.755,72.769c-7.927,12.374-14.74,27.346-26.523,36.6-8.679,6.817-19.983,7.864-30.619,8.534-21.219,1.337-51.184.582-61.036,23.96l20.583,1.413,6.2-35.756c1.006-5.8-12.618-5.228-15.29-4.363-24.213,7.839-44.34,24.448-54.481,48.05-3.263,7.6,17.12,9.007,20.3,2.848,7.024-13.6,14.062-27.19,20.972-40.849,4.271-8.443-16.241-7.061-19.723-4.3a529.734,529.734,0,0,1-124.193,73.275l17.929,5.377q39.462-50.52,78.947-101.022c4.445-5.672-11.022-7.077-13.169-6.776a762.114,762.114,0,0,0-212.088,62.129,740.6,740.6,0,0,0-97.448,53.949c-29.416,19.324-58.833,40.113-83.16,65.728-25.54,26.891-45.882,60.3-44.372,98.557.229,5.8,18.083,16.437,30.833,13.812,47.666-9.814,84.523-30.308,124.442-57.15,39.833-26.784,81.386-55.719,117.1-87.433C886.351,394.6,949.252,323.09,1015.4,251.123c35.058-38.145,58.915-55.589,135.224-95.532,21.971-11.5-11.029-33.25-38.515-25.264-86.6,25.16-164.4,65.236-248.416,98C847.648,234.578,829.7,240.161,816.705,252c-5.338,4.865-9.562,10.588-11.543,17.6-2.857,10.106.544,19.962.607,30.147.13,21.023-18.02,36.138-32.577,48.761a381.774,381.774,0,0,1-46.823,34.726,380.266,380.266,0,0,1-123.453,49.751c4.873,1.35,11.8,3.258,16.675,4.608,13.036-54.5,50.362-101.28,102-122.9l-16.544-4.707c-5.773,17.944-9.976,37.567-23.46,50.939-23.179,22.986-61.607,33.65-94.667,29.951-3.861-.432-9.736-.25-12.177,3.379C562.008,413.2,542.172,426.214,519.37,428.9l9.118,4.457c6.295-22.429,18.779-38.482,32.853-54.268,17.217-19.311,41.336-33.166,66.1-41.819L612.9,331.809C594,381.8,570.469,432.376,531.3,469.874c-19.082,18.268-42,33.192-67.142,41.587-22.514,7.516-52.951,12.362-75.319,1.631-26.738-12.828-15.16-49.391-7.5-69.313,9.547-24.813,30-72.761,30-72.761,24.575-47.868,56.68-94.623,90.5-136.427,19.518-24.126,42.712-47.089,65.171-68.5,19.862-18.939,53.133-45.631,83.121-32.913-.853-.929-2.356-3.731-3.209-4.661-8.929,53.113-47.411,93.1-87.592,125.656-46.6,37.76-96.528,71.7-148.192,102.123-52.535,30.937-107.555,56.275-162.861,81.739-51.942,23.915-104.025,49.478-148.742,85.6C55.133,559.5,15.446,607.119.189,663.082c-2.316,8.5,17.187,18.15,27.39,12.938,108.012-55.179,144.262-80.929,220.429-199.6,56.582-88.155,118.769-195.456,164.916-289.483,25.959-52.894,45.817-108,65.084-163.683,9.833-28.417-4.334-32.834-15.667-1.823Z" fill="none"/>
    </clipPath>
  </defs>
  <title>edittedSig</title>
  <g id="Layer_2" data-name="Layer 2">
    <g id="Layer_1-2" data-name="Layer 1">
      <g>
        <g clip-path="url(#clip-path)">
          <path id = "sigPath" d="M298.674,711.091s-23.4-7.007-6.583-19.25c108.417-78.917,969.891-345.073,1425.5-194.5" transform="translate(-10.717 -13.405)" fill="none" stroke="#000" stroke-miterlimit="10"/>
        </g>
        <g clip-path="url(#clip-path-2)">
          <path d="M474.341,13.591s-144.792,361.32-287.5,515.5S11.26,663.974,11.26,663.974s18.563-128.51,239.873-221.2c7.312-3.063,392.708-174.521,406.708-313.188,0,0-67.333-64.333-238.667,217.333s126.189,174.232,178.455,53.161c2.462-5.7,53.045-92.2-12.121-48.763s-74.167,103.1-40.667,75.769,34.909-31.132,63.667-31.667,90.474-27.858,104.833-78.833c3.32-11.785-16.9-2.807-36.875,16.5-40.194,38.851-93.846,112.759-52.625,100,28-8.667,126-40.5,176-98.5s-24.5-62.5,50-93.5,242.806-91.875,258.625-91.875S1078.308,159.7,932.508,322.924C723.341,557.091,542.566,620.615,549.2,584.436c3.107-16.937,7.585-51.7,62.637-105.178,63.477-61.667,189.868-129.176,361.023-162a3.936,3.936,0,0,1,3.658,6.508c-26.357,28.982-104.267,117.722-20.681,65.156,99.046-62.287,73.113-45.046,53.5-8.083,0,0,51.8-60.816,46.75-31.5s-2.75,17.75,8.75,11.5,71.333-6.2,82.333-23.25,102.167-183,207.292-222.5c19.4-7.29,12.1,37.744-23.59,94.965-37.142,59.543-112.8,124.357-180.035,198.535-218,240.5-375.236,310.534-358.618,264.767s43.992-131.815,334.951-231.434c55.872-19.129,111.165-33,148.662-48.083,104.489-42.022,134.446-72.736,79-82.583-13.727-2.438-55.692,7.245-84.25,28.833-49.167,37.168-93.75,86.5-24.417,86.5,25.917,0,59.886,2.129,95.154-12.309,51.763-21.191,108.2-40.7,68.749-80.155-18.311-18.311-45.312,26.093-35.406,32.124s67.42-32.035,74.92-36.285-22.066,64.7,1.125,39.875c28.438-30.437,57.25-45.375,84.628-18,19.247,19.247-26.146,68.413-68.187,105.1-70.649,61.65-109.649,81.983-124.316,74.65-10.176-5.088-13.333-76.333,216.667-162.333s404.333-13.334,404.333-13.334" transform="translate(-10.717 -13.405)" fill="none" stroke="#000" stroke-miterlimit="10"/>
        </g>
      </g>
    </g>
  </g>
</svg>
