<svg xmlns="http://www.w3.org/2000/svg" xmlns:xlink="http://www.w3.org/1999/xlink" viewBox="0 0 1964.182 671.913">
  <defs>
    <clipPath id="clip-path">
      <path d="M461.516,7.762c2.045-5.965,21.549-4.622,19.089,2.572a1393.311,1393.311,0,0,1-67.532,163.181,1369.13,1369.13,0,0,1-169.322,263.9C177.724,518.07,102.443,591,19.073,653.606c-3.8,2.854-21.052,4.549-18.735-3.949C15.6,593.693,55.282,546.079,99.686,510.208c44.717-36.124,96.8-61.687,148.742-85.6,55.306-25.464,110.325-50.8,162.861-81.738,51.663-30.424,101.592-64.364,148.192-102.124,40.18-32.558,80.051-72.542,88.98-125.655l2.558,2.789c-29.988-12.719-61.781,18.061-81.643,37a722.025,722.025,0,0,0-63.091,68.36c-33.821,41.8-63.637,86.487-88.211,134.356a745.6,745.6,0,0,0-32.577,72.76c-7.666,19.922-23.25,56.486,3.488,69.313,22.368,10.732,52.805,5.886,75.319-1.63,25.145-8.395,48.059-23.32,67.142-41.587,39.171-37.5,62.7-88.075,81.6-138.066l14.54,5.464c-45,15.725-80.273,52.838-95.892,97.581l-12.177-5.951c22.8-2.689,42.639-15.7,55.378-34.647,2.44-3.629,8.316-3.811,12.176-3.379,52.292,5.85,102.431-32.1,118.128-80.89l16.544,4.707c-51.642,21.618-91.024,67.843-104.06,122.341l-14.62-4.052a380.24,380.24,0,0,0,123.454-49.751,381.74,381.74,0,0,0,46.823-34.725c14.557-12.623,32.706-27.739,32.577-48.761-.063-10.186-3.465-20.041-.607-30.148,1.981-7.007,6.2-12.731,11.543-17.6,12.992-11.841,30.943-17.425,46.983-23.679q126.024-49.141,255.509-88.607c4.249-1.3,21.242,1.974,11.755,7.349-45.63,25.85-80.5,65.913-115.556,104.057A1852.967,1852.967,0,0,1,801,437.072q-56.472,44.672-116.3,84.837c-39.919,26.842-81.578,51.355-129.321,60.788-3.825.756-14.117-.044-14.346-5.843-1.51-38.257,18.832-71.666,44.371-98.557,24.328-25.616,53.745-46.4,83.161-65.728a740.769,740.769,0,0,1,97.447-53.95A762.1,762.1,0,0,1,978.1,296.491c2.147-.3,17.613,1.1,13.169,6.776q-39.542,50.459-78.947,101.022l-17.929-5.378a529.673,529.673,0,0,0,124.192-73.275c3.483-2.76,23.995-4.141,19.724,4.3-6.91,13.658-13.948,27.249-20.972,40.849-3.181,6.159-23.564,4.746-20.3-2.848,10.141-23.6,30.268-40.211,54.48-48.05,2.673-.865,16.3-1.434,15.291,4.362l-6.2,35.757-20.584-1.414c9.853-23.378,39.818-22.623,61.037-23.959,10.636-.67,21.94-1.717,30.619-8.534,11.783-9.255,18.6-24.227,26.523-36.6a683.187,683.187,0,0,1,53.754-72.77c38.115-45.039,81.786-87.22,129.812-121.567a16.757,16.757,0,0,1,18.585,0c21.206,14.531,11.141,44.181,2.47,63.007-12.751,27.682-29.073,53.572-47.371,77.9-32.9,43.746-71.567,82.5-110.83,120.469q-64.642,62.521-132.6,121.485-68.946,59.822-141.094,115.8c-42.892,33.335-87.9,74.935-144.889,77.942-5.459.288-16.02-3.309-13.312-10.725,22.419-61.4,75.917-104.118,129.948-137.206,56.02-34.306,116.357-61.248,177.948-83.845,60.034-22.025,122.019-37.507,182.4-58.323,27.54-9.5,54.675-21.2,78.089-38.816,7.45-5.6,27.946-18.973,20.9-30.412-4.025-6.533-15.049-6.361-21.56-5.017-25.331,5.231-50.572,20.577-70.052,37.116a194.564,194.564,0,0,0-50.043,65.065l-9.051-9.352a245.8,245.8,0,0,0,132.624-9.59c19.295-6.969,43.832-16.34,57.61-32.256,5.849-6.757,8.95-16.276,5.464-24.923-.636-1.577-2.241-3.049-2.746-4.489a9.869,9.869,0,0,0-1.581-1.476l2.776.321c-1.517,3.239-5.574,3.6-4.162,8.508L1382.719,332a257.058,257.058,0,0,0,56.538-22.24c4.789-2.583,18.753-4.115,21,3.183,5.349,17.348,3.569,35.271-6.265,50.71l-22.81-5.494c20.656-22.169,44.836-43.938,77.327-41.1,21.685,1.9,47.253,16.424,44.284,41.571-1.647,13.954-10.746,25.623-20.159,35.46-10.812,11.3-22.613,21.8-34.4,32.061a743.1,743.1,0,0,1-154.245,103.411c-5.807,2.917-24.215,3.632-21.439-7.268,9.2-36.108,34.4-64.923,63.349-87.231,28.287-21.8,60.034-39.07,92.172-54.46a750.457,750.457,0,0,1,105.153-41.1,758.781,758.781,0,0,1,111.994-25.16c38.11-5.545,76.309-6.19,114.745-6.19,63.025,0,156.32,30.379,154.025,34.339-2.125,3.667-56.25-22.756-154.025-22.756-40.753,0-81.955,4.572-122.1,11.272a714.834,714.834,0,0,0-204.3,66.728c-55.061,27.823-119.587,64.32-136.271,128.526L1325.851,519A724.044,724.044,0,0,0,1491.1,406.426c15.84-14.407,57.119-48.851,27.767-70.387-24.339-17.859-51.083,13.049-66.126,29.318-4.655,5.033-28.418,3.381-22.81-5.5,8.232-13.03,10.805-28.249,6.1-43.083l21,3.184a281.329,281.329,0,0,1-61.555,24.614c-4.4,1.175-16.666,2.183-18.562-4.353-7.171-24.719,30.034-32.851,45.84-21.479,17.678,12.719,11.445,36.976-2.07,50.013-17.383,16.77-42.846,27.282-65.271,35.288a284.9,284.9,0,0,1-151.005,10.874c-3.857-.775-11.654-3.842-9.052-9.353a208.168,208.168,0,0,1,61.96-76.39c24.1-18.418,56.373-36.787,87.431-37.943,19.712-.734,57.194,11.11,41.411,37.858-7.318,12.405-21.738,21.981-33.417,29.951-13.239,9.036-27.461,16.392-42.065,22.945-29.186,13.1-60.04,21.883-90.648,30.933-33.956,10.04-67.764,20.6-101.2,32.275-67.264,23.494-133.117,51.577-194.085,88.683-52.3,31.833-103.813,72.238-125.4,131.673l-13.311-10.725c28.733-1.57,54.322-19.4,76.791-35.8,25.256-18.443,50.032-37.6,74.6-56.947a3329.672,3329.672,0,0,0,255.858-223.642c37.592-36.406,75.274-73.5,106.47-115.681a420.476,420.476,0,0,0,40.686-66.392c7.523-15.526,19.466-42.806,1.33-55.59h18.585c-27.876,19.377-54.768,40.093-79.819,63.038-45.013,41.228-82.167,91.3-113.709,143.307-6.717,11.075-13.476,22.079-25.068,28.669-9.2,5.23-19.906,7.407-30.308,8.662-16.943,2.044-42.936-1.778-51.216,16.972-2.378,5.384-21.882,5.375-20.584-1.413l6.835-35.757,15.291,4.363c-20.674,6.364-36.313,22.387-44.437,42.173l-20.3-2.848c6.787-13.673,13.559-27.353,20.461-40.969l19.724,4.3a545.251,545.251,0,0,1-127.658,75.456,18.993,18.993,0,0,1-13,.864c-1.857-.6-7.235-3.294-4.93-6.242q39.507-50.5,78.989-101.012l13.169,6.776A728.425,728.425,0,0,0,676.6,426.051c-50.607,34.377-115.289,82.507-112.9,150.8l-14.346-5.843c52.743-10.2,98.7-42.489,142.1-72.444A1849.191,1849.191,0,0,0,915.666,316.374c34.324-32.661,66.888-66.915,99.108-101.63,30.779-33.164,62.841-65.387,102.609-87.722l11.755,7.349q-73.51,22.119-145.966,47.53c-42.522,14.921-85.345,29.952-126.854,47.536-15.479,6.557-32.967,16.293-33.414,35.235-.257,10.878,3.371,21.194.532,32.021-2.22,8.463-6.891,15.692-12.522,22.289-24.121,28.255-57.691,50.728-90.006,68.5A397.305,397.305,0,0,1,612.872,427.66c-2.207.474-15.922,1.455-14.62-4.051A187.763,187.763,0,0,1,707.745,294.426c3.469-1.452,18.978-2.856,16.545,4.707-19.025,59.132-82.11,94.4-142.48,87.648l12.176-3.379c-15.841,23.557-41.14,38.1-69.205,41.405-3.337.393-14.24-.04-12.176-5.952,17.026-48.772,56.488-86.415,104.99-103.363,3.326-1.162,16.993-1.022,14.541,5.464-23.933,63.3-56.461,127.8-115.4,165.184-23.861,15.132-51.184,25.529-79.435,28.114-23.475,2.148-60.884,2.257-76.523-19.024-16.506-22.461,1.159-56.622,10.044-78.65A748.162,748.162,0,0,1,517.136,186.739c34.855-37.3,88.584-98.989,146.236-74.44.812.346,2.768,1.553,2.558,2.789-9.9,58.216-54.962,100.8-99.371,135.682A1263.113,1263.113,0,0,1,415.877,352.38c-52.728,30.315-107.808,55.328-162.849,81.036C154.359,479.5,50.7,540.178,20.106,652.382L1.371,648.433a1280.964,1280.964,0,0,0,133.45-115.342A1335.138,1335.138,0,0,0,328.567,288.754,1389.535,1389.535,0,0,0,461.516,7.762Z" fill="none" stroke="#000" stroke-miterlimit="10" stroke-width="0.25"/>
    </clipPath>
  </defs>
  <title>handwriteSig</title>
  <g id="Layer_2" data-name="Layer 2">
    <g id="Layer_1-2" data-name="Layer 1">
      <g id="signature">
        <g clip-path="url(#clip-path)">
          <path d="M474.49.166S372.532,290.339,229.824,444.518,11.409,650.548,11.409,650.548s18.563-128.51,239.872-221.195c7.313-3.062,392.709-174.521,406.709-313.187,0,0-67.334-64.334-238.667,217.333S545.512,507.73,597.778,386.66c2.462-5.7,53.045-92.2-12.122-48.763S511.49,441,544.99,413.666,579.9,382.534,608.656,382s90.475-27.858,104.834-78.833c3.319-11.785-16.9-2.807-36.875,16.5-40.2,38.851-93.846,112.759-52.625,100,28-8.667,126-40.5,176-98.5s-24.5-62.5,50-93.5,242.805-91.875,258.625-91.875S1081.99,149.5,932.656,309.5,542.715,607.19,549.352,571.011c3.108-16.938,7.585-51.7,62.638-105.179,63.477-61.666,189.868-129.176,361.023-162a3.935,3.935,0,0,1,3.657,6.507C950.313,339.324,872.4,428.065,955.99,375.5c99.045-62.288,73.113-45.046,53.5-8.083,0,0,51.8-60.817,46.75-31.5s-2.75,17.75,8.75,11.5,71.333-6.2,82.333-23.25S1315.361,92.12,1356.009,103.81,1298.99,266.166,1150.99,395.166,775.754,705.7,792.372,659.933,840.466,532.219,1131.425,432.6c55.872-19.129,107.063-32.017,144.559-47.1,104.49-42.022,131.314-77.824,75.872-87.672-13.727-2.438-49.065,8.836-77.623,30.423-49.167,37.168-97.243,84.911-27.91,84.911,25.917,0,59.886,2.129,95.154-12.309,51.763-21.191,104.157-36.251,69.3-79.816-2.5-3.125-40.853,7.813-30.947,13.844s62.406-14.094,69.906-18.344-21.875,64.875,1.125,39.875,63.791-56.25,89.125-4.25c11.46,23.523-29.49,56.507-74.351,89.683-54.306,40.162-116.859,79.911-122.649,76.317-9.667-6-13.334-76.334,216.666-162.334S1963.99,342.5,1963.99,342.5" fill="none" stroke="#000" stroke-miterlimit="10"/>
        </g>
        <path d="M461.516,7.762c2.045-5.965,21.549-4.622,19.089,2.572a1393.311,1393.311,0,0,1-67.532,163.181,1369.13,1369.13,0,0,1-169.322,263.9C177.724,518.07,102.443,591,19.073,653.606c-3.8,2.854-21.052,4.549-18.735-3.949C15.6,593.693,55.282,546.079,99.686,510.208c44.717-36.124,96.8-61.687,148.742-85.6,55.306-25.464,110.325-50.8,162.861-81.738,51.663-30.424,101.592-64.364,148.192-102.124,40.18-32.558,80.051-72.542,88.98-125.655l2.558,2.789c-29.988-12.719-61.781,18.061-81.643,37a722.025,722.025,0,0,0-63.091,68.36c-33.821,41.8-63.637,86.487-88.211,134.356a745.6,745.6,0,0,0-32.577,72.76c-7.666,19.922-23.25,56.486,3.488,69.313,22.368,10.732,52.805,5.886,75.319-1.63,25.145-8.395,48.059-23.32,67.142-41.587,39.171-37.5,62.7-88.075,81.6-138.066l14.54,5.464c-45,15.725-80.273,52.838-95.892,97.581l-12.177-5.951c22.8-2.689,42.639-15.7,55.378-34.647,2.44-3.629,8.316-3.811,12.176-3.379,52.292,5.85,102.431-32.1,118.128-80.89l16.544,4.707c-51.642,21.618-91.024,67.843-104.06,122.341l-14.62-4.052a380.24,380.24,0,0,0,123.454-49.751,381.74,381.74,0,0,0,46.823-34.725c14.557-12.623,32.706-27.739,32.577-48.761-.063-10.186-3.465-20.041-.607-30.148,1.981-7.007,6.2-12.731,11.543-17.6,12.992-11.841,30.943-17.425,46.983-23.679q126.024-49.141,255.509-88.607c4.249-1.3,21.242,1.974,11.755,7.349-45.63,25.85-80.5,65.913-115.556,104.057A1852.967,1852.967,0,0,1,801,437.072q-56.472,44.672-116.3,84.837c-39.919,26.842-81.578,51.355-129.321,60.788-3.825.756-14.117-.044-14.346-5.843-1.51-38.257,18.832-71.666,44.371-98.557,24.328-25.616,53.745-46.4,83.161-65.728a740.769,740.769,0,0,1,97.447-53.95A762.1,762.1,0,0,1,978.1,296.491c2.147-.3,17.613,1.1,13.169,6.776q-39.542,50.459-78.947,101.022l-17.929-5.378a529.673,529.673,0,0,0,124.192-73.275c3.483-2.76,23.995-4.141,19.724,4.3-6.91,13.658-13.948,27.249-20.972,40.849-3.181,6.159-23.564,4.746-20.3-2.848,10.141-23.6,30.268-40.211,54.48-48.05,2.673-.865,16.3-1.434,15.291,4.362l-6.2,35.757-20.584-1.414c9.853-23.378,39.818-22.623,61.037-23.959,10.636-.67,21.94-1.717,30.619-8.534,11.783-9.255,18.6-24.227,26.523-36.6a683.187,683.187,0,0,1,53.754-72.77c38.115-45.039,81.786-87.22,129.812-121.567a16.757,16.757,0,0,1,18.585,0c21.206,14.531,11.141,44.181,2.47,63.007-12.751,27.682-29.073,53.572-47.371,77.9-32.9,43.746-71.567,82.5-110.83,120.469q-64.642,62.521-132.6,121.485-68.946,59.822-141.094,115.8c-42.892,33.335-87.9,74.935-144.889,77.942-5.459.288-16.02-3.309-13.312-10.725,22.419-61.4,75.917-104.118,129.948-137.206,56.02-34.306,116.357-61.248,177.948-83.845,60.034-22.025,122.019-37.507,182.4-58.323,27.54-9.5,54.675-21.2,78.089-38.816,7.45-5.6,27.946-18.973,20.9-30.412-4.025-6.533-15.049-6.361-21.56-5.017-25.331,5.231-50.572,20.577-70.052,37.116a194.564,194.564,0,0,0-50.043,65.065l-9.051-9.352a245.8,245.8,0,0,0,132.624-9.59c19.295-6.969,43.832-16.34,57.61-32.256,5.849-6.757,8.95-16.276,5.464-24.923-.636-1.577-2.241-3.049-2.746-4.489a9.869,9.869,0,0,0-1.581-1.476l2.776.321c-1.517,3.239-5.574,3.6-4.162,8.508L1382.719,332a257.058,257.058,0,0,0,56.538-22.24c4.789-2.583,18.753-4.115,21,3.183,5.349,17.348,3.569,35.271-6.265,50.71l-22.81-5.494c20.656-22.169,44.836-43.938,77.327-41.1,21.685,1.9,47.253,16.424,44.284,41.571-1.647,13.954-10.746,25.623-20.159,35.46-10.812,11.3-22.613,21.8-34.4,32.061a743.1,743.1,0,0,1-154.245,103.411c-5.807,2.917-24.215,3.632-21.439-7.268,9.2-36.108,34.4-64.923,63.349-87.231,28.287-21.8,60.034-39.07,92.172-54.46a750.457,750.457,0,0,1,105.153-41.1,758.781,758.781,0,0,1,111.994-25.16c38.11-5.545,76.309-6.19,114.745-6.19,63.025,0,156.32,30.379,154.025,34.339-2.125,3.667-56.25-22.756-154.025-22.756-40.753,0-81.955,4.572-122.1,11.272a714.834,714.834,0,0,0-204.3,66.728c-55.061,27.823-119.587,64.32-136.271,128.526L1325.851,519A724.044,724.044,0,0,0,1491.1,406.426c15.84-14.407,57.119-48.851,27.767-70.387-24.339-17.859-51.083,13.049-66.126,29.318-4.655,5.033-28.418,3.381-22.81-5.5,8.232-13.03,10.805-28.249,6.1-43.083l21,3.184a281.329,281.329,0,0,1-61.555,24.614c-4.4,1.175-16.666,2.183-18.562-4.353-7.171-24.719,30.034-32.851,45.84-21.479,17.678,12.719,11.445,36.976-2.07,50.013-17.383,16.77-42.846,27.282-65.271,35.288a284.9,284.9,0,0,1-151.005,10.874c-3.857-.775-11.654-3.842-9.052-9.353a208.168,208.168,0,0,1,61.96-76.39c24.1-18.418,56.373-36.787,87.431-37.943,19.712-.734,57.194,11.11,41.411,37.858-7.318,12.405-21.738,21.981-33.417,29.951-13.239,9.036-27.461,16.392-42.065,22.945-29.186,13.1-60.04,21.883-90.648,30.933-33.956,10.04-67.764,20.6-101.2,32.275-67.264,23.494-133.117,51.577-194.085,88.683-52.3,31.833-103.813,72.238-125.4,131.673l-13.311-10.725c28.733-1.57,54.322-19.4,76.791-35.8,25.256-18.443,50.032-37.6,74.6-56.947a3329.672,3329.672,0,0,0,255.858-223.642c37.592-36.406,75.274-73.5,106.47-115.681a420.476,420.476,0,0,0,40.686-66.392c7.523-15.526,19.466-42.806,1.33-55.59h18.585c-27.876,19.377-54.768,40.093-79.819,63.038-45.013,41.228-82.167,91.3-113.709,143.307-6.717,11.075-13.476,22.079-25.068,28.669-9.2,5.23-19.906,7.407-30.308,8.662-16.943,2.044-42.936-1.778-51.216,16.972-2.378,5.384-21.882,5.375-20.584-1.413l6.835-35.757,15.291,4.363c-20.674,6.364-36.313,22.387-44.437,42.173l-20.3-2.848c6.787-13.673,13.559-27.353,20.461-40.969l19.724,4.3a545.251,545.251,0,0,1-127.658,75.456,18.993,18.993,0,0,1-13,.864c-1.857-.6-7.235-3.294-4.93-6.242q39.507-50.5,78.989-101.012l13.169,6.776A728.425,728.425,0,0,0,676.6,426.051c-50.607,34.377-115.289,82.507-112.9,150.8l-14.346-5.843c52.743-10.2,98.7-42.489,142.1-72.444A1849.191,1849.191,0,0,0,915.666,316.374c34.324-32.661,66.888-66.915,99.108-101.63,30.779-33.164,62.841-65.387,102.609-87.722l11.755,7.349q-73.51,22.119-145.966,47.53c-42.522,14.921-85.345,29.952-126.854,47.536-15.479,6.557-32.967,16.293-33.414,35.235-.257,10.878,3.371,21.194.532,32.021-2.22,8.463-6.891,15.692-12.522,22.289-24.121,28.255-57.691,50.728-90.006,68.5A397.305,397.305,0,0,1,612.872,427.66c-2.207.474-15.922,1.455-14.62-4.051A187.763,187.763,0,0,1,707.745,294.426c3.469-1.452,18.978-2.856,16.545,4.707-19.025,59.132-82.11,94.4-142.48,87.648l12.176-3.379c-15.841,23.557-41.14,38.1-69.205,41.405-3.337.393-14.24-.04-12.176-5.952,17.026-48.772,56.488-86.415,104.99-103.363,3.326-1.162,16.993-1.022,14.541,5.464-23.933,63.3-56.461,127.8-115.4,165.184-23.861,15.132-51.184,25.529-79.435,28.114-23.475,2.148-60.884,2.257-76.523-19.024-16.506-22.461,1.159-56.622,10.044-78.65A748.162,748.162,0,0,1,517.136,186.739c34.855-37.3,88.584-98.989,146.236-74.44.812.346,2.768,1.553,2.558,2.789-9.9,58.216-54.962,100.8-99.371,135.682A1263.113,1263.113,0,0,1,415.877,352.38c-52.728,30.315-107.808,55.328-162.849,81.036C154.359,479.5,50.7,540.178,20.106,652.382L1.371,648.433a1280.964,1280.964,0,0,0,133.45-115.342A1335.138,1335.138,0,0,0,328.567,288.754,1389.535,1389.535,0,0,0,461.516,7.762Z" fill="none" stroke="#000" stroke-miterlimit="10" stroke-width="0"/>
      </g>
    </g>
  </g>
</svg>
